<mxfile host="Electron" modified="2023-07-17T16:15:52.215Z" agent="Mozilla/5.0 (X11; Linux x86_64) AppleWebKit/537.36 (KHTML, like Gecko) draw.io/21.6.1 Chrome/112.0.5615.204 Electron/24.6.1 Safari/537.36" etag="1VRpfinGW7aS8wrAgyjH" version="21.6.1" type="device">
  <diagram name="Page-1" id="SeIq_Arkuqk1TXrhvSJb">
    <mxGraphModel dx="2358" dy="1308" grid="1" gridSize="10" guides="1" tooltips="1" connect="1" arrows="1" fold="1" page="1" pageScale="1" pageWidth="20000" pageHeight="50000" math="0" shadow="0">
      <root>
        <mxCell id="0" />
        <mxCell id="1" parent="0" />
        <mxCell id="UawuweccyXf7EJnRYh6w-50" style="edgeStyle=orthogonalEdgeStyle;rounded=0;orthogonalLoop=1;jettySize=auto;html=1;entryX=0;entryY=0.5;entryDx=0;entryDy=0;dashed=1;dashPattern=12 12;strokeColor=#666666;" parent="1" source="UawuweccyXf7EJnRYh6w-2" target="UawuweccyXf7EJnRYh6w-3" edge="1">
          <mxGeometry relative="1" as="geometry" />
        </mxCell>
        <mxCell id="UawuweccyXf7EJnRYh6w-2" value="Widget" style="rounded=0;whiteSpace=wrap;html=1;" parent="1" vertex="1">
          <mxGeometry x="11090" y="9070" width="120" height="60" as="geometry" />
        </mxCell>
        <mxCell id="UawuweccyXf7EJnRYh6w-47" style="edgeStyle=orthogonalEdgeStyle;rounded=0;orthogonalLoop=1;jettySize=auto;html=1;entryX=0;entryY=0.5;entryDx=0;entryDy=0;" parent="1" source="UawuweccyXf7EJnRYh6w-4" target="UawuweccyXf7EJnRYh6w-19" edge="1">
          <mxGeometry relative="1" as="geometry" />
        </mxCell>
        <mxCell id="UawuweccyXf7EJnRYh6w-4" value="TUI Engine" style="rounded=0;whiteSpace=wrap;html=1;" parent="1" vertex="1">
          <mxGeometry x="11320" y="8970" width="190" height="60" as="geometry" />
        </mxCell>
        <mxCell id="UawuweccyXf7EJnRYh6w-14" style="edgeStyle=orthogonalEdgeStyle;rounded=0;orthogonalLoop=1;jettySize=auto;html=1;entryX=0;entryY=0.5;entryDx=0;entryDy=0;exitX=0.237;exitY=0.981;exitDx=0;exitDy=0;exitPerimeter=0;" parent="1" source="UawuweccyXf7EJnRYh6w-7" target="UawuweccyXf7EJnRYh6w-2" edge="1">
          <mxGeometry relative="1" as="geometry">
            <Array as="points">
              <mxPoint x="11019" y="9070" />
              <mxPoint x="11020" y="9070" />
              <mxPoint x="11020" y="9100" />
            </Array>
          </mxGeometry>
        </mxCell>
        <mxCell id="UawuweccyXf7EJnRYh6w-15" style="edgeStyle=orthogonalEdgeStyle;rounded=0;orthogonalLoop=1;jettySize=auto;html=1;entryX=0;entryY=0.5;entryDx=0;entryDy=0;" parent="1" source="UawuweccyXf7EJnRYh6w-7" target="UawuweccyXf7EJnRYh6w-8" edge="1">
          <mxGeometry relative="1" as="geometry">
            <mxPoint x="10980" y="9190" as="targetPoint" />
            <Array as="points">
              <mxPoint x="11020" y="9190" />
            </Array>
          </mxGeometry>
        </mxCell>
        <mxCell id="UawuweccyXf7EJnRYh6w-16" style="edgeStyle=orthogonalEdgeStyle;rounded=0;orthogonalLoop=1;jettySize=auto;html=1;entryX=0;entryY=0.5;entryDx=0;entryDy=0;" parent="1" source="UawuweccyXf7EJnRYh6w-7" target="UawuweccyXf7EJnRYh6w-9" edge="1">
          <mxGeometry relative="1" as="geometry">
            <Array as="points">
              <mxPoint x="11020" y="9280" />
            </Array>
          </mxGeometry>
        </mxCell>
        <mxCell id="UawuweccyXf7EJnRYh6w-17" style="edgeStyle=orthogonalEdgeStyle;rounded=0;orthogonalLoop=1;jettySize=auto;html=1;entryX=0;entryY=0.5;entryDx=0;entryDy=0;exitX=0.5;exitY=1;exitDx=0;exitDy=0;" parent="1" source="UawuweccyXf7EJnRYh6w-7" target="UawuweccyXf7EJnRYh6w-10" edge="1">
          <mxGeometry relative="1" as="geometry">
            <Array as="points">
              <mxPoint x="11020" y="9370" />
            </Array>
          </mxGeometry>
        </mxCell>
        <mxCell id="UawuweccyXf7EJnRYh6w-46" style="edgeStyle=orthogonalEdgeStyle;rounded=0;orthogonalLoop=1;jettySize=auto;html=1;entryX=0;entryY=0.5;entryDx=0;entryDy=0;" parent="1" source="UawuweccyXf7EJnRYh6w-7" target="UawuweccyXf7EJnRYh6w-4" edge="1">
          <mxGeometry relative="1" as="geometry" />
        </mxCell>
        <mxCell id="UawuweccyXf7EJnRYh6w-7" value="Abstract Layout Tree" style="rounded=0;whiteSpace=wrap;html=1;" parent="1" vertex="1">
          <mxGeometry x="10960" y="8970" width="250" height="60" as="geometry" />
        </mxCell>
        <mxCell id="UawuweccyXf7EJnRYh6w-8" value="Widget" style="rounded=0;whiteSpace=wrap;html=1;fillColor=#f5f5f5;fontColor=#333333;strokeColor=#666666;" parent="1" vertex="1">
          <mxGeometry x="11090" y="9160" width="120" height="60" as="geometry" />
        </mxCell>
        <mxCell id="UawuweccyXf7EJnRYh6w-9" value="Widget" style="rounded=0;whiteSpace=wrap;html=1;fillColor=#f5f5f5;fontColor=#333333;strokeColor=#666666;" parent="1" vertex="1">
          <mxGeometry x="11090" y="9250" width="120" height="60" as="geometry" />
        </mxCell>
        <mxCell id="UawuweccyXf7EJnRYh6w-10" value="Widget" style="rounded=0;whiteSpace=wrap;html=1;fillColor=#f5f5f5;fontColor=#333333;strokeColor=#666666;" parent="1" vertex="1">
          <mxGeometry x="11090" y="9340" width="120" height="60" as="geometry" />
        </mxCell>
        <mxCell id="UawuweccyXf7EJnRYh6w-26" style="edgeStyle=orthogonalEdgeStyle;rounded=0;orthogonalLoop=1;jettySize=auto;html=1;entryX=0;entryY=0.5;entryDx=0;entryDy=0;" parent="1" source="UawuweccyXf7EJnRYh6w-19" target="UawuweccyXf7EJnRYh6w-3" edge="1">
          <mxGeometry relative="1" as="geometry">
            <Array as="points">
              <mxPoint x="11640" y="9100" />
            </Array>
          </mxGeometry>
        </mxCell>
        <mxCell id="UawuweccyXf7EJnRYh6w-27" style="edgeStyle=orthogonalEdgeStyle;rounded=0;orthogonalLoop=1;jettySize=auto;html=1;entryX=0;entryY=0.5;entryDx=0;entryDy=0;" parent="1" source="UawuweccyXf7EJnRYh6w-19" target="UawuweccyXf7EJnRYh6w-20" edge="1">
          <mxGeometry relative="1" as="geometry">
            <Array as="points">
              <mxPoint x="11640" y="9190" />
            </Array>
          </mxGeometry>
        </mxCell>
        <mxCell id="UawuweccyXf7EJnRYh6w-28" style="edgeStyle=orthogonalEdgeStyle;rounded=0;orthogonalLoop=1;jettySize=auto;html=1;entryX=0;entryY=0.5;entryDx=0;entryDy=0;" parent="1" source="UawuweccyXf7EJnRYh6w-19" target="UawuweccyXf7EJnRYh6w-21" edge="1">
          <mxGeometry relative="1" as="geometry">
            <Array as="points">
              <mxPoint x="11640" y="9280" />
            </Array>
          </mxGeometry>
        </mxCell>
        <mxCell id="UawuweccyXf7EJnRYh6w-29" style="edgeStyle=orthogonalEdgeStyle;rounded=0;orthogonalLoop=1;jettySize=auto;html=1;entryX=0;entryY=0.5;entryDx=0;entryDy=0;" parent="1" source="UawuweccyXf7EJnRYh6w-19" target="UawuweccyXf7EJnRYh6w-22" edge="1">
          <mxGeometry relative="1" as="geometry">
            <Array as="points">
              <mxPoint x="11640" y="9370" />
            </Array>
          </mxGeometry>
        </mxCell>
        <mxCell id="UawuweccyXf7EJnRYh6w-43" style="edgeStyle=orthogonalEdgeStyle;rounded=0;orthogonalLoop=1;jettySize=auto;html=1;entryX=0;entryY=0.5;entryDx=0;entryDy=0;" parent="1" source="UawuweccyXf7EJnRYh6w-19" target="UawuweccyXf7EJnRYh6w-42" edge="1">
          <mxGeometry relative="1" as="geometry" />
        </mxCell>
        <mxCell id="UawuweccyXf7EJnRYh6w-19" value="Render Tree" style="rounded=0;whiteSpace=wrap;html=1;" parent="1" vertex="1">
          <mxGeometry x="11600" y="8970" width="390" height="60" as="geometry" />
        </mxCell>
        <mxCell id="UawuweccyXf7EJnRYh6w-30" value="ComponentBlock" style="rounded=0;whiteSpace=wrap;html=1;" parent="1" vertex="1">
          <mxGeometry x="11800" y="9070" width="190" height="60" as="geometry" />
        </mxCell>
        <mxCell id="UawuweccyXf7EJnRYh6w-31" value="ComponentBlock" style="rounded=0;whiteSpace=wrap;html=1;" parent="1" vertex="1">
          <mxGeometry x="11800" y="9160" width="190" height="60" as="geometry" />
        </mxCell>
        <mxCell id="UawuweccyXf7EJnRYh6w-32" value="ComponentBlock" style="rounded=0;whiteSpace=wrap;html=1;" parent="1" vertex="1">
          <mxGeometry x="11800" y="9250" width="190" height="60" as="geometry" />
        </mxCell>
        <mxCell id="UawuweccyXf7EJnRYh6w-33" value="ComponentBlock" style="rounded=0;whiteSpace=wrap;html=1;" parent="1" vertex="1">
          <mxGeometry x="11800" y="9340" width="190" height="60" as="geometry" />
        </mxCell>
        <mxCell id="UawuweccyXf7EJnRYh6w-41" value="First Pass" style="text;html=1;align=center;verticalAlign=middle;resizable=0;points=[];autosize=1;strokeColor=none;fillColor=none;fontSize=22;" parent="1" vertex="1">
          <mxGeometry x="10955" y="8870" width="120" height="40" as="geometry" />
        </mxCell>
        <mxCell id="UawuweccyXf7EJnRYh6w-45" style="edgeStyle=orthogonalEdgeStyle;rounded=0;orthogonalLoop=1;jettySize=auto;html=1;entryX=0;entryY=0.5;entryDx=0;entryDy=0;" parent="1" source="UawuweccyXf7EJnRYh6w-42" target="UawuweccyXf7EJnRYh6w-44" edge="1">
          <mxGeometry relative="1" as="geometry" />
        </mxCell>
        <mxCell id="UawuweccyXf7EJnRYh6w-109" style="edgeStyle=orthogonalEdgeStyle;rounded=0;orthogonalLoop=1;jettySize=auto;html=1;entryX=0;entryY=0.5;entryDx=0;entryDy=0;" parent="1" source="UawuweccyXf7EJnRYh6w-42" target="UawuweccyXf7EJnRYh6w-108" edge="1">
          <mxGeometry relative="1" as="geometry">
            <Array as="points">
              <mxPoint x="12330" y="9000" />
              <mxPoint x="12330" y="9080" />
              <mxPoint x="12360" y="9080" />
            </Array>
          </mxGeometry>
        </mxCell>
        <mxCell id="UawuweccyXf7EJnRYh6w-42" value="TUI Engine" style="rounded=0;whiteSpace=wrap;html=1;" parent="1" vertex="1">
          <mxGeometry x="12070" y="8970" width="190" height="60" as="geometry" />
        </mxCell>
        <mxCell id="UawuweccyXf7EJnRYh6w-44" value="CLI" style="rounded=0;whiteSpace=wrap;html=1;" parent="1" vertex="1">
          <mxGeometry x="12360" y="8970" width="190" height="60" as="geometry" />
        </mxCell>
        <mxCell id="UawuweccyXf7EJnRYh6w-3" value="ID" style="rounded=0;whiteSpace=wrap;html=1;" parent="1" vertex="1">
          <mxGeometry x="11710" y="9070" width="90" height="60" as="geometry" />
        </mxCell>
        <mxCell id="UawuweccyXf7EJnRYh6w-20" value="ID" style="rounded=0;whiteSpace=wrap;html=1;" parent="1" vertex="1">
          <mxGeometry x="11710" y="9160" width="90" height="60" as="geometry" />
        </mxCell>
        <mxCell id="UawuweccyXf7EJnRYh6w-21" value="ID" style="rounded=0;whiteSpace=wrap;html=1;" parent="1" vertex="1">
          <mxGeometry x="11710" y="9250" width="90" height="60" as="geometry" />
        </mxCell>
        <mxCell id="UawuweccyXf7EJnRYh6w-22" value="ID" style="rounded=0;whiteSpace=wrap;html=1;" parent="1" vertex="1">
          <mxGeometry x="11710" y="9340" width="90" height="60" as="geometry" />
        </mxCell>
        <mxCell id="UawuweccyXf7EJnRYh6w-48" value="Parse ( )" style="rounded=0;whiteSpace=wrap;html=1;fillColor=#dae8fc;strokeColor=#6c8ebf;" parent="1" vertex="1">
          <mxGeometry x="11320" y="9030" width="190" height="30" as="geometry" />
        </mxCell>
        <mxCell id="UawuweccyXf7EJnRYh6w-49" value="Render ( )" style="rounded=0;whiteSpace=wrap;html=1;fillColor=#ffe6cc;strokeColor=#d79b00;" parent="1" vertex="1">
          <mxGeometry x="12120" y="9140.42" width="190" height="30" as="geometry" />
        </mxCell>
        <mxCell id="UawuweccyXf7EJnRYh6w-51" style="edgeStyle=orthogonalEdgeStyle;rounded=0;orthogonalLoop=1;jettySize=auto;html=1;entryX=0;entryY=0.5;entryDx=0;entryDy=0;dashed=1;dashPattern=12 12;strokeColor=#666666;" parent="1" edge="1">
          <mxGeometry relative="1" as="geometry">
            <mxPoint x="11210" y="9189.58" as="sourcePoint" />
            <mxPoint x="11710" y="9189.58" as="targetPoint" />
          </mxGeometry>
        </mxCell>
        <mxCell id="UawuweccyXf7EJnRYh6w-52" style="edgeStyle=orthogonalEdgeStyle;rounded=0;orthogonalLoop=1;jettySize=auto;html=1;entryX=0;entryY=0.5;entryDx=0;entryDy=0;dashed=1;dashPattern=12 12;strokeColor=#666666;" parent="1" edge="1">
          <mxGeometry relative="1" as="geometry">
            <mxPoint x="11210" y="9279.58" as="sourcePoint" />
            <mxPoint x="11710" y="9279.58" as="targetPoint" />
          </mxGeometry>
        </mxCell>
        <mxCell id="UawuweccyXf7EJnRYh6w-53" style="edgeStyle=orthogonalEdgeStyle;rounded=0;orthogonalLoop=1;jettySize=auto;html=1;entryX=0;entryY=0.5;entryDx=0;entryDy=0;dashed=1;dashPattern=12 12;strokeColor=#666666;" parent="1" edge="1">
          <mxGeometry relative="1" as="geometry">
            <mxPoint x="11210" y="9369.58" as="sourcePoint" />
            <mxPoint x="11710" y="9369.58" as="targetPoint" />
          </mxGeometry>
        </mxCell>
        <mxCell id="UawuweccyXf7EJnRYh6w-54" style="edgeStyle=orthogonalEdgeStyle;rounded=0;orthogonalLoop=1;jettySize=auto;html=1;dashed=1;dashPattern=12 12;strokeColor=#666666;endArrow=none;endFill=0;" parent="1" edge="1">
          <mxGeometry relative="1" as="geometry">
            <mxPoint x="11260" y="9720" as="sourcePoint" />
            <mxPoint x="11640" y="9720" as="targetPoint" />
          </mxGeometry>
        </mxCell>
        <mxCell id="UawuweccyXf7EJnRYh6w-90" style="edgeStyle=orthogonalEdgeStyle;rounded=0;orthogonalLoop=1;jettySize=auto;html=1;entryX=0;entryY=0.5;entryDx=0;entryDy=0;fillColor=#d5e8d4;strokeColor=#82b366;" parent="1" source="UawuweccyXf7EJnRYh6w-55" target="UawuweccyXf7EJnRYh6w-57" edge="1">
          <mxGeometry relative="1" as="geometry" />
        </mxCell>
        <mxCell id="UawuweccyXf7EJnRYh6w-91" value="ID: 438824e" style="edgeLabel;html=1;align=center;verticalAlign=middle;resizable=0;points=[];" parent="UawuweccyXf7EJnRYh6w-90" vertex="1" connectable="0">
          <mxGeometry x="0.0928" y="1" relative="1" as="geometry">
            <mxPoint as="offset" />
          </mxGeometry>
        </mxCell>
        <mxCell id="UawuweccyXf7EJnRYh6w-55" value="Widget" style="rounded=0;whiteSpace=wrap;html=1;fillColor=#d5e8d4;strokeColor=#82b366;" parent="1" vertex="1">
          <mxGeometry x="11090" y="9690" width="120" height="60" as="geometry" />
        </mxCell>
        <mxCell id="UawuweccyXf7EJnRYh6w-56" style="edgeStyle=orthogonalEdgeStyle;rounded=0;orthogonalLoop=1;jettySize=auto;html=1;entryX=0;entryY=0.5;entryDx=0;entryDy=0;fillColor=#d5e8d4;strokeColor=#82b366;" parent="1" source="UawuweccyXf7EJnRYh6w-57" target="UawuweccyXf7EJnRYh6w-72" edge="1">
          <mxGeometry relative="1" as="geometry" />
        </mxCell>
        <mxCell id="UawuweccyXf7EJnRYh6w-57" value="TUI Engine" style="rounded=0;whiteSpace=wrap;html=1;" parent="1" vertex="1">
          <mxGeometry x="11320" y="9590" width="190" height="60" as="geometry" />
        </mxCell>
        <mxCell id="UawuweccyXf7EJnRYh6w-58" style="edgeStyle=orthogonalEdgeStyle;rounded=0;orthogonalLoop=1;jettySize=auto;html=1;entryX=0;entryY=0.5;entryDx=0;entryDy=0;exitX=0.237;exitY=0.981;exitDx=0;exitDy=0;exitPerimeter=0;" parent="1" source="UawuweccyXf7EJnRYh6w-63" target="UawuweccyXf7EJnRYh6w-55" edge="1">
          <mxGeometry relative="1" as="geometry">
            <Array as="points">
              <mxPoint x="11019" y="9690" />
              <mxPoint x="11020" y="9690" />
              <mxPoint x="11020" y="9720" />
            </Array>
          </mxGeometry>
        </mxCell>
        <mxCell id="UawuweccyXf7EJnRYh6w-59" style="edgeStyle=orthogonalEdgeStyle;rounded=0;orthogonalLoop=1;jettySize=auto;html=1;entryX=0;entryY=0.5;entryDx=0;entryDy=0;" parent="1" source="UawuweccyXf7EJnRYh6w-63" target="UawuweccyXf7EJnRYh6w-64" edge="1">
          <mxGeometry relative="1" as="geometry">
            <mxPoint x="10980" y="9810" as="targetPoint" />
            <Array as="points">
              <mxPoint x="11020" y="9810" />
            </Array>
          </mxGeometry>
        </mxCell>
        <mxCell id="UawuweccyXf7EJnRYh6w-60" style="edgeStyle=orthogonalEdgeStyle;rounded=0;orthogonalLoop=1;jettySize=auto;html=1;entryX=0;entryY=0.5;entryDx=0;entryDy=0;" parent="1" source="UawuweccyXf7EJnRYh6w-63" target="UawuweccyXf7EJnRYh6w-65" edge="1">
          <mxGeometry relative="1" as="geometry">
            <Array as="points">
              <mxPoint x="11020" y="9900" />
            </Array>
          </mxGeometry>
        </mxCell>
        <mxCell id="UawuweccyXf7EJnRYh6w-61" style="edgeStyle=orthogonalEdgeStyle;rounded=0;orthogonalLoop=1;jettySize=auto;html=1;entryX=0;entryY=0.5;entryDx=0;entryDy=0;exitX=0.5;exitY=1;exitDx=0;exitDy=0;" parent="1" source="UawuweccyXf7EJnRYh6w-63" target="UawuweccyXf7EJnRYh6w-66" edge="1">
          <mxGeometry relative="1" as="geometry">
            <Array as="points">
              <mxPoint x="11020" y="9990" />
            </Array>
          </mxGeometry>
        </mxCell>
        <mxCell id="UawuweccyXf7EJnRYh6w-63" value="Abstract Layout Tree" style="rounded=0;whiteSpace=wrap;html=1;" parent="1" vertex="1">
          <mxGeometry x="10960" y="9590" width="250" height="60" as="geometry" />
        </mxCell>
        <mxCell id="UawuweccyXf7EJnRYh6w-64" value="Widget" style="rounded=0;whiteSpace=wrap;html=1;fillColor=#f5f5f5;fontColor=#333333;strokeColor=#666666;" parent="1" vertex="1">
          <mxGeometry x="11090" y="9780" width="120" height="60" as="geometry" />
        </mxCell>
        <mxCell id="UawuweccyXf7EJnRYh6w-65" value="Widget" style="rounded=0;whiteSpace=wrap;html=1;fillColor=#f5f5f5;fontColor=#333333;strokeColor=#666666;" parent="1" vertex="1">
          <mxGeometry x="11090" y="9870" width="120" height="60" as="geometry" />
        </mxCell>
        <mxCell id="UawuweccyXf7EJnRYh6w-66" value="Widget" style="rounded=0;whiteSpace=wrap;html=1;fillColor=#f5f5f5;fontColor=#333333;strokeColor=#666666;" parent="1" vertex="1">
          <mxGeometry x="11090" y="9960" width="120" height="60" as="geometry" />
        </mxCell>
        <mxCell id="UawuweccyXf7EJnRYh6w-68" style="edgeStyle=orthogonalEdgeStyle;rounded=0;orthogonalLoop=1;jettySize=auto;html=1;entryX=0;entryY=0.5;entryDx=0;entryDy=0;fillColor=#f5f5f5;strokeColor=#666666;" parent="1" source="UawuweccyXf7EJnRYh6w-72" target="UawuweccyXf7EJnRYh6w-82" edge="1">
          <mxGeometry relative="1" as="geometry">
            <Array as="points">
              <mxPoint x="11640" y="9810" />
            </Array>
          </mxGeometry>
        </mxCell>
        <mxCell id="UawuweccyXf7EJnRYh6w-69" style="edgeStyle=orthogonalEdgeStyle;rounded=0;orthogonalLoop=1;jettySize=auto;html=1;entryX=0;entryY=0.5;entryDx=0;entryDy=0;fillColor=#f5f5f5;strokeColor=#666666;" parent="1" source="UawuweccyXf7EJnRYh6w-72" target="UawuweccyXf7EJnRYh6w-83" edge="1">
          <mxGeometry relative="1" as="geometry">
            <Array as="points">
              <mxPoint x="11640" y="9900" />
            </Array>
          </mxGeometry>
        </mxCell>
        <mxCell id="UawuweccyXf7EJnRYh6w-70" style="edgeStyle=orthogonalEdgeStyle;rounded=0;orthogonalLoop=1;jettySize=auto;html=1;entryX=0;entryY=0.5;entryDx=0;entryDy=0;fillColor=#f5f5f5;strokeColor=#666666;" parent="1" source="UawuweccyXf7EJnRYh6w-72" target="UawuweccyXf7EJnRYh6w-84" edge="1">
          <mxGeometry relative="1" as="geometry">
            <Array as="points">
              <mxPoint x="11640" y="9990" />
            </Array>
          </mxGeometry>
        </mxCell>
        <mxCell id="UawuweccyXf7EJnRYh6w-72" value="Planar Table" style="rounded=0;whiteSpace=wrap;html=1;" parent="1" vertex="1">
          <mxGeometry x="11600" y="9590" width="390" height="60" as="geometry" />
        </mxCell>
        <mxCell id="UawuweccyXf7EJnRYh6w-93" style="edgeStyle=orthogonalEdgeStyle;rounded=0;orthogonalLoop=1;jettySize=auto;html=1;entryX=0;entryY=0.5;entryDx=0;entryDy=0;fillColor=#d5e8d4;strokeColor=#82b366;" parent="1" source="UawuweccyXf7EJnRYh6w-73" target="UawuweccyXf7EJnRYh6w-79" edge="1">
          <mxGeometry relative="1" as="geometry" />
        </mxCell>
        <mxCell id="UawuweccyXf7EJnRYh6w-73" value="Planar Location" style="rounded=0;whiteSpace=wrap;html=1;fillColor=#d5e8d4;strokeColor=#82b366;" parent="1" vertex="1">
          <mxGeometry x="11800" y="9690" width="190" height="60" as="geometry" />
        </mxCell>
        <mxCell id="UawuweccyXf7EJnRYh6w-74" value="ComponentBlock" style="rounded=0;whiteSpace=wrap;html=1;fillColor=#f5f5f5;fontColor=#333333;strokeColor=#666666;" parent="1" vertex="1">
          <mxGeometry x="11800" y="9780" width="190" height="60" as="geometry" />
        </mxCell>
        <mxCell id="UawuweccyXf7EJnRYh6w-75" value="ComponentBlock" style="rounded=0;whiteSpace=wrap;html=1;fillColor=#f5f5f5;fontColor=#333333;strokeColor=#666666;" parent="1" vertex="1">
          <mxGeometry x="11800" y="9870" width="190" height="60" as="geometry" />
        </mxCell>
        <mxCell id="UawuweccyXf7EJnRYh6w-76" value="ComponentBlock" style="rounded=0;whiteSpace=wrap;html=1;fillColor=#f5f5f5;fontColor=#333333;strokeColor=#666666;" parent="1" vertex="1">
          <mxGeometry x="11800" y="9960" width="190" height="60" as="geometry" />
        </mxCell>
        <mxCell id="UawuweccyXf7EJnRYh6w-77" value="Re-Render" style="text;html=1;align=center;verticalAlign=middle;resizable=0;points=[];autosize=1;strokeColor=none;fillColor=none;fontSize=22;" parent="1" vertex="1">
          <mxGeometry x="10955" y="9490" width="130" height="40" as="geometry" />
        </mxCell>
        <mxCell id="UawuweccyXf7EJnRYh6w-78" style="edgeStyle=orthogonalEdgeStyle;rounded=0;orthogonalLoop=1;jettySize=auto;html=1;entryX=0;entryY=0.5;entryDx=0;entryDy=0;" parent="1" source="UawuweccyXf7EJnRYh6w-79" target="UawuweccyXf7EJnRYh6w-80" edge="1">
          <mxGeometry relative="1" as="geometry" />
        </mxCell>
        <mxCell id="UawuweccyXf7EJnRYh6w-79" value="TUI Engine" style="rounded=0;whiteSpace=wrap;html=1;" parent="1" vertex="1">
          <mxGeometry x="12070" y="9590" width="190" height="60" as="geometry" />
        </mxCell>
        <mxCell id="UawuweccyXf7EJnRYh6w-80" value="CLI" style="rounded=0;whiteSpace=wrap;html=1;" parent="1" vertex="1">
          <mxGeometry x="12360" y="9590" width="190" height="60" as="geometry" />
        </mxCell>
        <mxCell id="UawuweccyXf7EJnRYh6w-81" value="ID: 438824e" style="rounded=0;whiteSpace=wrap;html=1;fillColor=#d5e8d4;strokeColor=#82b366;" parent="1" vertex="1">
          <mxGeometry x="11710" y="9690" width="90" height="60" as="geometry" />
        </mxCell>
        <mxCell id="UawuweccyXf7EJnRYh6w-82" value="ID" style="rounded=0;whiteSpace=wrap;html=1;fillColor=#f5f5f5;fontColor=#333333;strokeColor=#666666;" parent="1" vertex="1">
          <mxGeometry x="11710" y="9780" width="90" height="60" as="geometry" />
        </mxCell>
        <mxCell id="UawuweccyXf7EJnRYh6w-83" value="ID" style="rounded=0;whiteSpace=wrap;html=1;fillColor=#f5f5f5;fontColor=#333333;strokeColor=#666666;" parent="1" vertex="1">
          <mxGeometry x="11710" y="9870" width="90" height="60" as="geometry" />
        </mxCell>
        <mxCell id="UawuweccyXf7EJnRYh6w-84" value="ID" style="rounded=0;whiteSpace=wrap;html=1;fillColor=#f5f5f5;fontColor=#333333;strokeColor=#666666;" parent="1" vertex="1">
          <mxGeometry x="11710" y="9960" width="90" height="60" as="geometry" />
        </mxCell>
        <mxCell id="UawuweccyXf7EJnRYh6w-85" value="Fetch (438824e)" style="rounded=0;whiteSpace=wrap;html=1;fillColor=#d5e8d4;strokeColor=#82b366;" parent="1" vertex="1">
          <mxGeometry x="11320" y="9650" width="190" height="30" as="geometry" />
        </mxCell>
        <mxCell id="UawuweccyXf7EJnRYh6w-86" value="Refresh (&amp;amp;planar, &amp;amp;diff)" style="rounded=0;whiteSpace=wrap;html=1;fillColor=#d5e8d4;strokeColor=#82b366;" parent="1" vertex="1">
          <mxGeometry x="12070" y="9650" width="190" height="30" as="geometry" />
        </mxCell>
        <mxCell id="UawuweccyXf7EJnRYh6w-87" style="edgeStyle=orthogonalEdgeStyle;rounded=0;orthogonalLoop=1;jettySize=auto;html=1;entryX=0;entryY=0.5;entryDx=0;entryDy=0;dashed=1;dashPattern=12 12;strokeColor=#666666;" parent="1" edge="1">
          <mxGeometry relative="1" as="geometry">
            <mxPoint x="11210" y="9809.58" as="sourcePoint" />
            <mxPoint x="11710" y="9809.58" as="targetPoint" />
          </mxGeometry>
        </mxCell>
        <mxCell id="UawuweccyXf7EJnRYh6w-88" style="edgeStyle=orthogonalEdgeStyle;rounded=0;orthogonalLoop=1;jettySize=auto;html=1;entryX=0;entryY=0.5;entryDx=0;entryDy=0;dashed=1;dashPattern=12 12;strokeColor=#666666;" parent="1" edge="1">
          <mxGeometry relative="1" as="geometry">
            <mxPoint x="11210" y="9899.58" as="sourcePoint" />
            <mxPoint x="11710" y="9899.58" as="targetPoint" />
          </mxGeometry>
        </mxCell>
        <mxCell id="UawuweccyXf7EJnRYh6w-89" style="edgeStyle=orthogonalEdgeStyle;rounded=0;orthogonalLoop=1;jettySize=auto;html=1;entryX=0;entryY=0.5;entryDx=0;entryDy=0;dashed=1;dashPattern=12 12;strokeColor=#666666;" parent="1" edge="1">
          <mxGeometry relative="1" as="geometry">
            <mxPoint x="11210" y="9989.58" as="sourcePoint" />
            <mxPoint x="11710" y="9989.58" as="targetPoint" />
          </mxGeometry>
        </mxCell>
        <mxCell id="UawuweccyXf7EJnRYh6w-67" style="edgeStyle=orthogonalEdgeStyle;rounded=0;orthogonalLoop=1;jettySize=auto;html=1;entryX=0;entryY=0.5;entryDx=0;entryDy=0;fillColor=#d5e8d4;strokeColor=#82b366;" parent="1" source="UawuweccyXf7EJnRYh6w-72" target="UawuweccyXf7EJnRYh6w-81" edge="1">
          <mxGeometry relative="1" as="geometry">
            <Array as="points">
              <mxPoint x="11640" y="9720" />
            </Array>
          </mxGeometry>
        </mxCell>
        <mxCell id="UawuweccyXf7EJnRYh6w-94" value="&lt;font color=&quot;#000000&quot;&gt;Log: Changed block values at:&lt;br&gt;&lt;/font&gt;&lt;br&gt;&lt;font color=&quot;#1c7301&quot;&gt;X: &amp;amp;planar_x &lt;/font&gt;&lt;br&gt;&lt;font color=&quot;#1c7301&quot;&gt;Y: &amp;amp;planar_y&lt;br&gt;&lt;/font&gt;&lt;br&gt;&lt;font color=&quot;#000000&quot;&gt;with values:&lt;br&gt;&lt;/font&gt;&lt;br&gt;&lt;font color=&quot;#1c7301&quot;&gt;&amp;amp;str = &amp;amp;diff.val&lt;/font&gt;" style="rounded=0;whiteSpace=wrap;html=1;fillColor=#f5f5f5;fontColor=#333333;strokeColor=#666666;align=left;spacingLeft=15;" parent="1" vertex="1">
          <mxGeometry x="12360" y="9650" width="190" height="160" as="geometry" />
        </mxCell>
        <mxCell id="UawuweccyXf7EJnRYh6w-95" value="Push (&amp;amp;stack, c_blk)" style="rounded=0;whiteSpace=wrap;html=1;fillColor=#ffe6cc;strokeColor=#d79b00;" parent="1" vertex="1">
          <mxGeometry x="12120" y="9080.42" width="190" height="30" as="geometry" />
        </mxCell>
        <mxCell id="UawuweccyXf7EJnRYh6w-96" value="Push (...) [END]" style="rounded=0;whiteSpace=wrap;html=1;fillColor=#ffe6cc;strokeColor=#d79b00;" parent="1" vertex="1">
          <mxGeometry x="12120" y="9110.42" width="190" height="30" as="geometry" />
        </mxCell>
        <mxCell id="UawuweccyXf7EJnRYh6w-98" style="edgeStyle=orthogonalEdgeStyle;rounded=0;orthogonalLoop=1;jettySize=auto;html=1;entryX=0;entryY=0.5;entryDx=0;entryDy=0;exitX=0.106;exitY=0.971;exitDx=0;exitDy=0;exitPerimeter=0;" parent="1" source="UawuweccyXf7EJnRYh6w-97" target="UawuweccyXf7EJnRYh6w-95" edge="1">
          <mxGeometry relative="1" as="geometry">
            <mxPoint x="12096.98" y="9070" as="sourcePoint" />
            <Array as="points">
              <mxPoint x="12090" y="9070" />
              <mxPoint x="12090" y="9095" />
            </Array>
          </mxGeometry>
        </mxCell>
        <mxCell id="UawuweccyXf7EJnRYh6w-102" value="0" style="edgeLabel;html=1;align=center;verticalAlign=middle;resizable=0;points=[];" parent="UawuweccyXf7EJnRYh6w-98" vertex="1" connectable="0">
          <mxGeometry x="0.4849" y="-1" relative="1" as="geometry">
            <mxPoint x="-2" y="-1" as="offset" />
          </mxGeometry>
        </mxCell>
        <mxCell id="UawuweccyXf7EJnRYh6w-100" style="edgeStyle=orthogonalEdgeStyle;rounded=0;orthogonalLoop=1;jettySize=auto;html=1;entryX=0;entryY=0.5;entryDx=0;entryDy=0;" parent="1" target="UawuweccyXf7EJnRYh6w-96" edge="1">
          <mxGeometry relative="1" as="geometry">
            <mxPoint x="12089.999999999998" y="9070.42" as="sourcePoint" />
            <Array as="points">
              <mxPoint x="12090" y="9125.42" />
            </Array>
          </mxGeometry>
        </mxCell>
        <mxCell id="UawuweccyXf7EJnRYh6w-103" value="1" style="edgeLabel;html=1;align=center;verticalAlign=middle;resizable=0;points=[];" parent="UawuweccyXf7EJnRYh6w-100" vertex="1" connectable="0">
          <mxGeometry x="0.6756" relative="1" as="geometry">
            <mxPoint x="-4" as="offset" />
          </mxGeometry>
        </mxCell>
        <mxCell id="UawuweccyXf7EJnRYh6w-101" style="edgeStyle=orthogonalEdgeStyle;rounded=0;orthogonalLoop=1;jettySize=auto;html=1;entryX=0;entryY=0.5;entryDx=0;entryDy=0;" parent="1" target="UawuweccyXf7EJnRYh6w-49" edge="1">
          <mxGeometry relative="1" as="geometry">
            <mxPoint x="12089.999999999998" y="9070.42" as="sourcePoint" />
            <Array as="points">
              <mxPoint x="12090" y="9155.42" />
            </Array>
          </mxGeometry>
        </mxCell>
        <mxCell id="UawuweccyXf7EJnRYh6w-104" value="2" style="edgeLabel;html=1;align=center;verticalAlign=middle;resizable=0;points=[];" parent="UawuweccyXf7EJnRYh6w-101" vertex="1" connectable="0">
          <mxGeometry x="0.7211" y="1" relative="1" as="geometry">
            <mxPoint x="-2" y="1" as="offset" />
          </mxGeometry>
        </mxCell>
        <mxCell id="UawuweccyXf7EJnRYh6w-97" value="iter (tree)" style="rounded=0;whiteSpace=wrap;html=1;fillColor=#dae8fc;strokeColor=#6c8ebf;" parent="1" vertex="1">
          <mxGeometry x="12070" y="9030" width="190" height="30" as="geometry" />
        </mxCell>
        <mxCell id="UawuweccyXf7EJnRYh6w-110" style="edgeStyle=orthogonalEdgeStyle;rounded=0;orthogonalLoop=1;jettySize=auto;html=1;dashed=1;dashPattern=8 8;fillColor=#f5f5f5;strokeColor=#BDBDBD;strokeWidth=2;" parent="1" source="UawuweccyXf7EJnRYh6w-108" target="UawuweccyXf7EJnRYh6w-72" edge="1">
          <mxGeometry relative="1" as="geometry">
            <Array as="points">
              <mxPoint x="12455" y="9480" />
              <mxPoint x="11795" y="9480" />
            </Array>
          </mxGeometry>
        </mxCell>
        <mxCell id="UawuweccyXf7EJnRYh6w-108" value="Planar Table" style="rounded=0;whiteSpace=wrap;html=1;" parent="1" vertex="1">
          <mxGeometry x="12360" y="9050.42" width="190" height="60" as="geometry" />
        </mxCell>
      </root>
    </mxGraphModel>
  </diagram>
</mxfile>
